# xmcd CD database file
#
# Track frame offsets:
#	150
#	23727
#	44492
#
# Disc length: 904 seconds
#
# Revision: 2
# Processed by: cddbd v1.5.2PL0 Copyright (c) Steve Scherf et al.
# Submitted via: CDex 1.70beta2
#
DISCID=1d038603
DTITLE=9nine - 繝偵き繝ｪ繝弱き繧ｲ [蛻晏屓逶､B]
DYEAR=2010
DGENRE=J-Pop
TTITLE0=繝偵き繝ｪ繝弱き繧ｲ
TTITLE1=Smile Again (zenryoku rock remix)
TTITLE2=繝偵き繝ｪ繝弱き繧ｲ (instrumental)
EXTD=YEAR: 2010
EXTT0=
EXTT1=
EXTT2=
PLAYORDER=
